<?xml version="1.0" encoding="UTF-8" standalone="no"?><!DOCTYPE svg PUBLIC "-//W3C//DTD SVG 1.1//EN" "http://www.w3.org/Graphics/SVG/1.1/DTD/svg11.dtd"><svg width="100%" height="100%" viewBox="0 0 546 118" version="1.1" xmlns="http://www.w3.org/2000/svg" xmlns:xlink="http://www.w3.org/1999/xlink" xml:space="preserve" xmlns:serif="http://www.serif.com/" style="fill-rule:evenodd;clip-rule:evenodd;stroke-linejoin:round;stroke-miterlimit:2;"><rect id="Artboard1" x="0" y="0" width="545.692" height="118" style="fill:none;"/><clipPath id="_clip1"><rect id="Artboard11" serif:id="Artboard1" x="0" y="0" width="545.692" height="118"/></clipPath><g clip-path="url(#_clip1)"><path d="M59.857,1.229c-33.056,0 -59.857,26.802 -59.857,59.865c-0,26.449 17.151,48.884 40.939,56.804c2.995,0.547 4.086,-1.301 4.086,-2.889c0,-1.418 -0.051,-5.185 -0.081,-10.179c-16.651,3.616 -20.164,-8.027 -20.164,-8.027c-2.723,-6.912 -6.648,-8.753 -6.648,-8.753c-5.435,-3.716 0.412,-3.642 0.412,-3.642c6.008,0.426 9.169,6.17 9.169,6.17c5.339,9.147 14.012,6.505 17.423,4.976c0.543,-3.87 2.087,-6.508 3.799,-8.004c-13.292,-1.51 -27.268,-6.648 -27.268,-29.587c0,-6.534 2.334,-11.877 6.163,-16.063c-0.617,-1.514 -2.671,-7.6 0.585,-15.843c-0,0 5.027,-1.609 16.463,6.137c4.774,-1.326 9.897,-1.991 14.987,-2.013c5.082,0.022 10.205,0.687 14.986,2.013c11.429,-7.746 16.445,-6.137 16.445,-6.137c3.267,8.243 1.213,14.329 0.596,15.843c3.836,4.186 6.155,9.529 6.155,16.063c0,22.998 -13.998,28.058 -27.334,29.539c2.15,1.849 4.065,5.502 4.065,11.087c-0,8.001 -0.074,14.458 -0.074,16.42c0,1.602 1.077,3.466 4.116,2.881c23.77,-7.934 40.906,-30.355 40.906,-56.796c-0,-33.063 -26.805,-59.865 -59.869,-59.865" style="fill:#181717;"/><path d="M220.002,55.603l-33.897,-0c-0.875,-0 -1.585,0.71 -1.585,1.584l-0,16.573c-0,0.875 0.71,1.586 1.585,1.586l13.223,0l-0,20.591c-0,0 -2.969,1.012 -11.178,1.012c-9.684,-0 -23.213,-3.538 -23.213,-33.288c-0,-29.756 14.087,-33.671 27.313,-33.671c11.448,-0 16.38,2.016 19.518,2.987c0.987,0.301 1.898,-0.68 1.898,-1.555l3.782,-16.013c0,-0.41 -0.139,-0.902 -0.604,-1.237c-1.275,-0.91 -9.051,-5.261 -28.694,-5.261c-22.629,0 -45.842,9.628 -45.842,55.91c0,46.282 26.576,53.179 48.972,53.179c18.543,-0 29.791,-7.924 29.791,-7.924c0.464,-0.255 0.514,-0.903 0.514,-1.2l0,-51.689c0,-0.874 -0.709,-1.584 -1.583,-1.584" style="fill:#0e0d0d;fill-rule:nonzero;"/><path d="M394.693,14.457c0,-0.881 -0.698,-1.594 -1.573,-1.594l-19.086,0c-0.873,0 -1.58,0.713 -1.58,1.594c-0,0.004 0.004,36.885 0.004,36.885l-29.75,0l0,-36.885c0,-0.881 -0.702,-1.594 -1.576,-1.594l-19.084,0c-0.868,0 -1.576,0.713 -1.576,1.594l-0,99.874c-0,0.88 0.708,1.597 1.576,1.597l19.084,-0c0.874,-0 1.576,-0.717 1.576,-1.597l0,-42.72l29.75,-0c0,-0 -0.051,42.716 -0.051,42.72c-0,0.88 0.706,1.597 1.581,1.597l19.131,-0c0.873,-0 1.572,-0.717 1.574,-1.597l0,-99.874Z" style="fill:#0e0d0d;fill-rule:nonzero;"/><path d="M256.018,27.563c0,-6.872 -5.51,-12.426 -12.308,-12.426c-6.791,-0 -12.305,5.554 -12.305,12.426c0,6.865 5.514,12.434 12.305,12.434c6.798,0 12.308,-5.569 12.308,-12.434" style="fill:#0e0d0d;fill-rule:nonzero;"/><path d="M254.653,113.364l0,-66.204c0,-0.874 -0.705,-1.59 -1.579,-1.59l-19.025,0c-0.874,0 -1.655,0.899 -1.655,1.775l0,66.051c0,1.94 1.21,2.517 2.776,2.517l17.141,0c1.881,0 2.342,-0.924 2.342,-2.549Z" style="fill:#0e0d0d;fill-rule:nonzero;"/><path d="M467.229,45.72l-18.939,0c-0.869,0 -1.576,0.716 -1.576,1.597l0,48.971c0,-0 -4.812,3.521 -11.642,3.521c-6.829,-0 -8.641,-3.099 -8.641,-9.786l-0,-42.706c-0,-0.881 -0.706,-1.597 -1.575,-1.597l-19.222,0c-0.867,0 -1.578,0.716 -1.578,1.597l-0,45.939c-0,19.862 11.069,24.721 26.297,24.721c12.494,0 22.567,-6.902 22.567,-6.902c-0,0 0.478,3.638 0.696,4.069c0.216,0.43 0.782,0.865 1.393,0.865l12.229,-0.054c0.867,-0 1.578,-0.717 1.578,-1.595l-0.007,-67.043c0,-0.881 -0.707,-1.597 -1.58,-1.597" style="fill:#0e0d0d;fill-rule:nonzero;"/><path d="M511.525,99.748c-6.57,-0.201 -11.026,-3.181 -11.026,-3.181l-0,-31.628c-0,0 4.396,-2.695 9.789,-3.176c6.821,-0.61 13.392,1.449 13.392,17.72c0,17.156 -2.965,20.543 -12.155,20.265m7.47,-56.271c-10.757,-0 -18.074,4.8 -18.074,4.8l0,-33.82c0,-0.882 -0.706,-1.594 -1.575,-1.594l-19.14,0c-0.871,0 -1.577,0.712 -1.577,1.594l-0,99.874c-0,0.881 0.706,1.598 1.579,1.598l13.28,-0c0.598,-0 1.051,-0.309 1.385,-0.849c0.331,-0.537 0.807,-4.604 0.807,-4.604c-0,-0 7.826,7.416 22.642,7.416c17.394,-0 27.37,-8.823 27.37,-39.608c-0,-30.785 -15.933,-34.807 -26.697,-34.807" style="fill:#0e0d0d;fill-rule:nonzero;"/><path d="M309.508,45.561l-14.318,-0c0,-0 -0.021,-18.91 -0.021,-18.915c0,-0.715 -0.368,-1.074 -1.197,-1.074l-19.509,0c-0.759,0 -1.166,0.335 -1.166,1.064l-0,19.545c-0,0 -9.777,2.36 -10.438,2.552c-0.659,0.19 -1.143,0.797 -1.143,1.522l-0,12.282c-0,0.883 0.705,1.596 1.577,1.596l10.004,-0l-0,29.548c-0,21.947 15.394,24.103 25.782,24.103c4.747,-0 10.425,-1.525 11.363,-1.871c0.566,-0.208 0.897,-0.795 0.897,-1.431l0.015,-13.512c0,-0.881 -0.744,-1.595 -1.582,-1.595c-0.834,0 -2.969,0.339 -5.166,0.339c-7.032,0 -9.416,-3.269 -9.416,-7.501c0,-4.23 -0.001,-28.08 -0.001,-28.08l14.319,-0c0.872,-0 1.58,-0.713 1.58,-1.596l-0,-15.385c-0,-0.881 -0.708,-1.591 -1.58,-1.591" style="fill:#0e0d0d;fill-rule:nonzero;"/></g></svg>