<?xml version="1.0" encoding="UTF-8" standalone="no"?><!DOCTYPE svg PUBLIC "-//W3C//DTD SVG 1.1//EN" "http://www.w3.org/Graphics/SVG/1.1/DTD/svg11.dtd"><svg width="100%" height="100%" viewBox="0 0 9755 2096" version="1.1" xmlns="http://www.w3.org/2000/svg" xmlns:xlink="http://www.w3.org/1999/xlink" xml:space="preserve" xmlns:serif="http://www.serif.com/" style="fill-rule:evenodd;clip-rule:evenodd;stroke-linejoin:round;stroke-miterlimit:2;"><rect id="Artboard3" x="0" y="0" width="9754.17" height="2095.83" style="fill:none;"/><clipPath id="_clip1"><rect x="0" y="0" width="9754.17" height="2095.83"/></clipPath><g clip-path="url(#_clip1)"><rect id="Artboard2" x="-1625" y="-520.833" width="13020.8" height="3125" style="fill:none;"/><g><path d="M1085.44,-0c-589.759,-0 -1067.92,478.179 -1067.92,1068.06c-0,471.884 305.991,872.15 730.4,1013.45c53.433,9.759 72.9,-23.208 72.9,-51.541c-0,-25.3 -0.913,-92.509 -1.446,-181.604c-297.075,64.512 -359.75,-143.213 -359.75,-143.213c-48.583,-123.321 -118.608,-156.162 -118.608,-156.162c-96.967,-66.3 7.35,-64.98 7.35,-64.98c107.191,7.6 163.587,110.08 163.587,110.08c95.254,163.195 249.988,116.058 310.846,88.779c9.687,-69.046 37.233,-116.113 67.779,-142.8c-237.146,-26.942 -486.496,-118.609 -486.496,-527.871c0,-116.571 41.642,-211.896 109.959,-286.579c-11.009,-27.013 -47.655,-135.596 10.437,-282.659c0,0 89.688,-28.708 293.717,109.492c85.175,-23.658 176.575,-35.525 267.387,-35.917c90.667,0.392 182.067,12.259 267.367,35.917c203.908,-138.2 293.4,-109.492 293.4,-109.492c58.287,147.063 21.642,255.646 10.633,282.659c68.438,74.683 109.813,170.008 109.813,286.579c-0,410.312 -249.742,500.592 -487.671,527.012c38.358,32.988 72.525,98.163 72.525,197.805c-0,142.75 -1.321,257.95 -1.321,292.954c0,28.579 19.213,61.837 73.433,51.4c424.084,-141.55 729.813,-541.571 729.813,-1013.31c-0,-589.883 -478.233,-1068.06 -1068.13,-1068.06" style="fill:#181717;"/><path d="M3942.62,970.096l-604.763,-0c-15.612,-0 -28.279,12.666 -28.279,28.262l0,295.679c0,15.613 12.667,28.296 28.279,28.296l235.913,0l-0,367.371c-0,0 -52.971,18.054 -199.429,18.054c-172.771,0 -414.146,-63.121 -414.146,-593.896c-0,-530.883 251.329,-600.733 487.296,-600.733c204.246,0 292.237,35.971 348.225,53.292c17.608,5.371 33.862,-12.129 33.862,-27.742l67.475,-285.692c0,-7.312 -2.479,-16.091 -10.775,-22.07c-22.75,-16.234 -161.479,-93.863 -511.937,-93.863c-403.725,0 -817.875,171.775 -817.875,997.504c-0,825.725 474.15,948.775 873.721,948.775c330.829,0 531.504,-141.375 531.504,-141.375c8.279,-4.55 9.171,-16.108 9.171,-21.408l-0,-922.192c-0,-15.596 -12.65,-28.262 -28.242,-28.262" style="fill:#0e0d0d;fill-rule:nonzero;"/><path d="M7059.33,236.004c0,-15.721 -12.454,-28.442 -28.066,-28.442l-340.517,0c-15.575,0 -28.188,12.721 -28.188,28.442c0,0.071 0.071,658.071 0.071,658.071l-530.775,-0l0,-658.071c0,-15.721 -12.525,-28.442 -28.116,-28.442l-340.484,0c-15.483,0 -28.116,12.721 -28.116,28.442l-0,1781.87c-0,15.7 12.633,28.492 28.116,28.492l340.484,-0c15.591,-0 28.116,-12.792 28.116,-28.492l0,-762.175l530.775,-0c0,-0 -0.908,762.104 -0.908,762.175c-0,15.7 12.596,28.492 28.204,28.492l341.321,-0c15.575,-0 28.046,-12.792 28.083,-28.492l0,-1781.87Z" style="fill:#0e0d0d;fill-rule:nonzero;"/><path d="M4585.17,469.829c-0,-122.604 -98.305,-221.696 -219.588,-221.696c-121.158,0 -219.537,99.092 -219.537,221.696c-0,122.479 98.379,221.838 219.537,221.838c121.283,-0 219.588,-99.359 219.588,-221.838" style="fill:#0e0d0d;fill-rule:nonzero;"/><path d="M4560.83,2000.62l0,-1181.16c0,-15.591 -12.579,-28.366 -28.171,-28.366l-339.429,-0c-15.596,-0 -29.529,16.037 -29.529,31.666l0,1178.43c0,34.612 21.588,44.908 49.529,44.908l305.813,0c33.562,0 41.787,-16.488 41.787,-45.479Z" style="fill:#0e0d0d;fill-rule:nonzero;"/><path d="M8353.46,793.771l-337.896,-0c-15.504,-0 -28.116,12.775 -28.116,28.496l-0,873.7c-0,-0 -85.854,62.816 -207.709,62.816c-121.837,0 -154.166,-55.287 -154.166,-174.591l-0,-761.925c-0,-15.721 -12.596,-28.496 -28.1,-28.496l-342.942,-0c-15.467,-0 -28.154,12.775 -28.154,28.496l-0,819.604c-0,354.362 197.483,441.054 469.171,441.054c222.908,-0 402.621,-123.142 402.621,-123.142c-0,0 8.529,64.904 12.416,72.596c3.854,7.671 13.954,15.433 24.854,15.433l218.18,-0.962c15.47,-0 28.154,-12.796 28.154,-28.458l-0.125,-1196.12c-0,-15.721 -12.613,-28.496 -28.188,-28.496" style="fill:#0e0d0d;fill-rule:nonzero;"/><path d="M9143.75,1757.7c-117.217,-3.588 -196.717,-56.754 -196.717,-56.754l0,-564.28c0,0 78.429,-48.083 174.646,-56.662c121.696,-10.883 238.929,25.85 238.929,316.146c0,306.083 -52.896,366.508 -216.858,361.55m133.275,-1003.94c-191.921,0 -322.463,85.638 -322.463,85.638l0,-603.388c0,-15.737 -12.595,-28.442 -28.1,-28.442l-341.479,0c-15.541,0 -28.137,12.705 -28.137,28.442l-0,1781.87c-0,15.717 12.596,28.508 28.171,28.508l236.933,0c10.667,0 18.75,-5.512 24.708,-15.146c5.904,-9.579 14.4,-82.141 14.4,-82.141c0,-0 139.625,132.312 403.959,132.312c310.329,0 488.312,-157.416 488.312,-706.654c0,-549.242 -284.262,-621 -476.304,-621" style="fill:#0e0d0d;fill-rule:nonzero;"/><path d="M5539.5,790.937l-255.45,0c-0,0 -0.371,-337.379 -0.371,-337.466c0,-12.759 -6.567,-19.163 -21.358,-19.163l-348.063,0c-13.541,0 -20.804,5.975 -20.804,18.984l0,348.704c0,-0 -174.433,42.108 -186.225,45.533c-11.758,3.388 -20.391,14.217 -20.391,27.154l-0.001,219.125c0.001,15.755 12.575,28.475 28.134,28.475l178.483,0l0,527.171c0,391.558 274.646,430.025 459.983,430.025c84.692,0 185.992,-27.208 202.73,-33.379c10.095,-3.713 16.004,-14.183 16.004,-25.533l0.266,-241.071c0.001,-15.717 -13.274,-28.454 -28.224,-28.454c-14.88,-0 -52.971,6.045 -92.167,6.045c-125.463,0 -167.996,-58.32 -167.996,-133.825c0,-75.466 -0.017,-500.979 -0.017,-500.979l255.467,0c15.558,0 28.192,-12.721 28.192,-28.475l-0,-274.487c-0,-15.717 -12.634,-28.384 -28.192,-28.384" style="fill:#0e0d0d;fill-rule:nonzero;"/></g></g></svg>