<?xml version="1.0" encoding="UTF-8" standalone="no"?><!DOCTYPE svg PUBLIC "-//W3C//DTD SVG 1.1//EN" "http://www.w3.org/Graphics/SVG/1.1/DTD/svg11.dtd"><svg width="100%" height="100%" viewBox="0 0 3125 750" version="1.1" xmlns="http://www.w3.org/2000/svg" xmlns:xlink="http://www.w3.org/1999/xlink" xml:space="preserve" xmlns:serif="http://www.serif.com/" style="fill-rule:evenodd;clip-rule:evenodd;stroke-linejoin:round;stroke-miterlimit:2;"><rect id="Artboard2" x="0" y="0" width="3125" height="750" style="fill:none;"/><g><path d="M650.506,125c-141.542,0 -256.301,114.763 -256.301,256.335c-0,113.252 73.438,209.316 175.296,243.228c12.824,2.342 17.496,-5.57 17.496,-12.37c-0,-6.072 -0.219,-22.202 -0.347,-43.585c-71.298,15.483 -86.34,-34.371 -86.34,-34.371c-11.66,-29.597 -28.466,-37.479 -28.466,-37.479c-23.272,-15.912 1.764,-15.595 1.764,-15.595c25.726,1.824 39.261,26.419 39.261,26.419c22.861,39.167 59.997,27.854 74.603,21.307c2.325,-16.571 8.936,-27.867 16.267,-34.272c-56.915,-6.466 -116.759,-28.466 -116.759,-126.689c0,-27.977 9.994,-50.855 26.39,-68.779c-2.642,-6.483 -11.437,-32.543 2.505,-67.838c-0,-0 21.525,-6.89 70.492,26.278c20.442,-5.678 42.378,-8.526 64.173,-8.62c21.76,0.094 43.696,2.942 64.168,8.62c48.938,-33.168 70.416,-26.278 70.416,-26.278c13.989,35.295 5.194,61.355 2.552,67.838c16.425,17.924 26.355,40.802 26.355,68.779c-0,98.475 -59.938,120.142 -117.041,126.483c9.206,7.917 17.406,23.559 17.406,47.473c-0,34.26 -0.317,61.908 -0.317,70.309c-0,6.859 4.611,14.841 17.624,12.336c101.78,-33.972 175.155,-129.977 175.155,-243.194c-0,-141.572 -114.776,-256.335 -256.352,-256.335" style="fill:#181717;"/><path d="M1336.23,357.823l-145.143,0c-3.747,0 -6.787,3.04 -6.787,6.783l0,70.963c0,3.747 3.04,6.791 6.787,6.791l56.619,0l0,88.169c0,-0 -12.713,4.333 -47.863,4.333c-41.465,0 -99.395,-15.149 -99.395,-142.535c0,-127.412 60.319,-144.176 116.951,-144.176c49.019,0 70.137,8.633 83.574,12.79c4.226,1.289 8.127,-2.911 8.127,-6.658l16.194,-68.566c0,-1.755 -0.595,-3.862 -2.586,-5.297c-5.46,-3.896 -38.755,-22.527 -122.865,-22.527c-96.894,0 -196.29,41.226 -196.29,239.401c0,198.174 113.796,227.706 209.693,227.706c79.399,0 127.561,-33.93 127.561,-33.93c1.987,-1.092 2.201,-3.866 2.201,-5.138l0,-221.326c0,-3.743 -3.036,-6.783 -6.778,-6.783" style="fill:#0e0d0d;fill-rule:nonzero;"/><path d="M2084.24,181.641c-0,-3.773 -2.989,-6.826 -6.736,-6.826l-81.724,0c-3.738,0 -6.765,3.053 -6.765,6.826c0,0.017 0.017,157.937 0.017,157.937l-127.386,0l0,-157.937c0,-3.773 -3.006,-6.826 -6.748,-6.826l-81.716,0c-3.716,0 -6.748,3.053 -6.748,6.826l0,427.649c0,3.768 3.032,6.838 6.748,6.838l81.716,-0c3.742,-0 6.748,-3.07 6.748,-6.838l0,-182.922l127.386,-0c0,-0 -0.218,182.905 -0.218,182.922c-0,3.768 3.023,6.838 6.769,6.838l81.917,-0c3.738,-0 6.731,-3.07 6.74,-6.838l-0,-427.649Z" style="fill:#0e0d0d;fill-rule:nonzero;"/><path d="M1490.44,237.759c0,-29.425 -23.593,-53.207 -52.701,-53.207c-29.078,0 -52.689,23.782 -52.689,53.207c0,29.395 23.611,53.241 52.689,53.241c29.108,0 52.701,-23.846 52.701,-53.241" style="fill:#0e0d0d;fill-rule:nonzero;"/><path d="M1484.6,605.149l-0,-283.478c-0,-3.742 -3.019,-6.808 -6.761,-6.808l-81.463,0c-3.743,0 -7.087,3.849 -7.087,7.6l0,282.823c0,8.307 5.181,10.778 11.887,10.778l73.395,-0c8.055,-0 10.029,-3.957 10.029,-10.915Z" style="fill:#0e0d0d;fill-rule:nonzero;"/><path d="M2394.83,315.505l-81.095,0c-3.721,0 -6.748,3.066 -6.748,6.839l-0,209.688c-0,-0 -20.605,15.076 -49.85,15.076c-29.241,0 -37,-13.269 -37,-41.902l0,-182.862c0,-3.773 -3.023,-6.839 -6.744,-6.839l-82.306,0c-3.712,0 -6.757,3.066 -6.757,6.839l0,196.705c0,85.047 47.396,105.853 112.601,105.853c53.498,-0 96.629,-29.554 96.629,-29.554c0,-0 2.047,15.577 2.98,17.423c0.925,1.841 3.349,3.704 5.965,3.704l52.363,-0.231c3.713,-0 6.757,-3.071 6.757,-6.83l-0.03,-287.07c0,-3.773 -3.027,-6.839 -6.765,-6.839" style="fill:#0e0d0d;fill-rule:nonzero;"/><path d="M2584.5,546.847c-28.132,-0.861 -47.212,-13.621 -47.212,-13.621l-0,-135.427c-0,-0 18.823,-11.54 41.915,-13.599c29.207,-2.612 57.343,6.204 57.343,75.875c0,73.46 -12.695,87.962 -52.046,86.772m31.986,-240.946c-46.061,0 -77.391,20.553 -77.391,20.553l-0,-144.813c-0,-3.777 -3.023,-6.826 -6.744,-6.826l-81.955,0c-3.73,0 -6.753,3.049 -6.753,6.826l0,427.649c0,3.772 3.023,6.842 6.761,6.842l56.864,0c2.56,0 4.5,-1.323 5.93,-3.635c1.417,-2.299 3.456,-19.714 3.456,-19.714c-0,0 33.51,31.755 96.95,31.755c74.479,-0 117.195,-37.78 117.195,-169.597c0,-131.818 -68.223,-149.04 -114.313,-149.04" style="fill:#0e0d0d;fill-rule:nonzero;"/><path d="M1719.48,314.825l-61.308,-0c0,-0 -0.089,-80.971 -0.089,-80.992c-0,-3.062 -1.576,-4.599 -5.126,-4.599l-83.535,-0c-3.25,-0 -4.993,1.434 -4.993,4.556l0,83.689c0,0 -41.864,10.106 -44.694,10.928c-2.822,0.813 -4.894,3.412 -4.894,6.517l-0,52.59c-0,3.781 3.018,6.834 6.752,6.834l42.836,-0l0,126.521c0,93.974 65.915,103.206 110.396,103.206c20.326,0 44.638,-6.53 48.655,-8.011c2.423,-0.891 3.841,-3.404 3.841,-6.128l0.064,-57.857c-0,-3.772 -3.186,-6.829 -6.774,-6.829c-3.571,-0 -12.713,1.451 -22.12,1.451c-30.111,0 -40.319,-13.997 -40.319,-32.118c0,-18.112 -0.004,-120.235 -0.004,-120.235l61.312,-0c3.734,-0 6.766,-3.053 6.766,-6.834l-0,-65.877c-0,-3.772 -3.032,-6.812 -6.766,-6.812" style="fill:#0e0d0d;fill-rule:nonzero;"/></g></svg>