<?xml version="1.0" encoding="UTF-8" standalone="no"?><!DOCTYPE svg PUBLIC "-//W3C//DTD SVG 1.1//EN" "http://www.w3.org/Graphics/SVG/1.1/DTD/svg11.dtd"><svg width="100%" height="100%" viewBox="0 0 688 118" version="1.1" xmlns="http://www.w3.org/2000/svg" xmlns:xlink="http://www.w3.org/1999/xlink" xml:space="preserve" xmlns:serif="http://www.serif.com/" style="fill-rule:evenodd;clip-rule:evenodd;stroke-linejoin:round;stroke-miterlimit:2;"><path d="M7.95,38.655c-10.6,10.6 -10.6,27.784 0,38.383l30.705,30.706c10.6,10.599 27.784,10.599 38.383,0l30.706,-30.706c10.599,-10.6 10.599,-27.784 0,-38.383l-30.706,-30.705c-10.6,-10.599 -27.784,-10.599 -38.383,-0l-30.705,30.705Zm63.33,32.626c7.42,-7.42 7.42,-19.449 0,-26.868c-7.419,-7.42 -19.448,-7.42 -26.867,0c-7.42,7.42 -7.42,19.448 0,26.868c7.42,7.419 19.448,7.419 26.868,0l-0.001,0Z"/><path d="M161.437,78.362c0.043,-8.549 5.268,-13.558 12.781,-13.558c7.47,0 11.874,4.793 11.831,12.954l0,38.947l18.394,0l0,-42.229c0.043,-15.544 -9.111,-24.957 -22.928,-24.957c-10.06,-0 -16.796,4.75 -19.819,12.565l-0.777,-0l0,-33.808l-17.876,-0l0,88.429l18.394,-0l0,-38.343Zm71.53,39.595c9.801,-0 16.148,-4.275 19.387,-10.449l0.518,-0l-0,9.197l17.444,-0l0,-44.733c0,-15.803 -13.385,-22.453 -28.152,-22.453c-15.89,-0 -26.339,7.6 -28.887,19.69l17.013,1.381c1.252,-4.404 5.181,-7.642 11.787,-7.642c6.261,-0 9.845,3.152 9.845,8.592l0,0.26c0,4.274 -4.534,4.835 -16.062,5.958c-13.127,1.209 -24.914,5.613 -24.914,20.423c0,13.126 9.369,19.776 22.021,19.776Zm5.267,-12.695c-5.656,0 -9.715,-2.633 -9.715,-7.685c-0,-5.182 4.275,-7.73 10.752,-8.636c4.015,-0.561 10.578,-1.511 12.78,-2.98l-0,7.039c-0,6.951 -5.742,12.262 -13.817,12.262Zm96.67,-35.967c-1.64,-12.22 -11.485,-19.776 -28.238,-19.776c-16.969,0 -28.152,7.859 -28.109,20.64c-0.043,9.93 6.218,16.364 19.171,18.955l11.485,2.288c5.786,1.166 8.42,3.282 8.506,6.606c-0.086,3.93 -4.361,6.736 -10.794,6.736c-6.563,0 -10.924,-2.806 -12.047,-8.204l-18.091,0.95c1.727,12.695 12.521,20.51 30.095,20.51c17.185,0 29.49,-8.765 29.534,-21.848c-0.044,-9.586 -6.304,-15.329 -19.171,-17.962l-12.004,-2.418c-6.175,-1.339 -8.463,-3.455 -8.42,-6.65c-0.043,-3.972 4.448,-6.563 10.147,-6.563c6.39,0 10.19,3.498 11.097,7.772l16.839,-1.036Zm26.625,9.067c0.043,-8.549 5.267,-13.558 12.78,-13.558c7.47,0 11.874,4.793 11.831,12.954l0,38.947l18.394,0l0,-42.229c0.043,-15.544 -9.111,-24.957 -22.928,-24.957c-10.06,-0 -16.796,4.75 -19.818,12.565l-0.778,-0l0,-33.808l-17.875,-0l0,88.429l18.394,-0l0,-38.343Zm71.011,-0c0.043,-8.549 5.138,-13.558 12.565,-13.558c7.383,0 11.831,4.836 11.787,12.954l0,38.947l18.394,0l0,-42.229c0,-15.457 -9.067,-24.957 -22.884,-24.957c-9.845,-0 -16.969,4.836 -19.948,12.565l-0.778,-0l0,-11.701l-17.53,-0l0,66.322l18.394,0l0,-38.343Zm82.345,39.638c20.122,0 32.643,-13.774 32.643,-34.197c0,-20.553 -12.521,-34.284 -32.643,-34.284c-20.121,0 -32.642,13.731 -32.642,34.284c0,20.423 12.521,34.197 32.642,34.197Zm0.087,-14.249c-9.283,0 -14.033,-8.506 -14.033,-20.078c0,-11.572 4.75,-20.12 14.033,-20.12c9.11,0 13.86,8.549 13.86,20.12c0,11.572 -4.75,20.078 -13.86,20.078Zm64.092,14.033c10.708,0 16.278,-6.174 18.826,-11.701l0.777,0l0,10.622l18.135,0l0,-88.43l-18.351,0l0,33.248l-0.561,0c-2.462,-5.397 -7.773,-12.004 -18.869,-12.004c-14.551,0 -26.857,11.313 -26.857,34.111c0,22.194 11.788,34.154 26.9,34.154Zm5.829,-14.637c-9.024,0 -13.947,-8.032 -13.947,-19.603c0,-11.486 4.836,-19.387 13.947,-19.387c8.938,0 13.947,7.556 13.947,19.387c0,11.83 -5.096,19.603 -13.947,19.603Zm72.393,14.853c16.408,0 27.461,-7.988 30.052,-20.294l-17.012,-1.122c-1.857,5.051 -6.606,7.685 -12.738,7.685c-9.197,0 -15.026,-6.088 -15.026,-15.976l0,-0.043l45.165,0l0,-5.052c0,-22.539 -13.645,-33.679 -31.175,-33.679c-19.517,0 -32.168,13.86 -32.168,34.327c0,21.028 12.479,34.154 32.902,34.154Zm-14.724,-41.149c0.389,-7.556 6.132,-13.601 14.292,-13.601c7.988,0 13.515,5.7 13.558,13.601l-27.85,0Z" style="fill-rule:nonzero;"/></svg>