<?xml version="1.0" encoding="UTF-8" standalone="no"?><!DOCTYPE svg PUBLIC "-//W3C//DTD SVG 1.1//EN" "http://www.w3.org/Graphics/SVG/1.1/DTD/svg11.dtd"><svg width="100%" height="100%" viewBox="0 0 3125 750" version="1.1" xmlns="http://www.w3.org/2000/svg" xmlns:xlink="http://www.w3.org/1999/xlink" xml:space="preserve" xmlns:serif="http://www.serif.com/" style="fill-rule:evenodd;clip-rule:evenodd;stroke-linejoin:round;stroke-miterlimit:2;"><rect id="Artboard1" x="0" y="0" width="3125" height="750" style="fill:none;"/><g><path d="M139.129,288.79c-44.916,44.916 -44.916,117.73 -0,162.641l130.106,130.111c44.916,44.911 117.73,44.911 162.641,0l130.111,-130.111c44.912,-44.915 44.912,-117.729 0,-162.641l-130.111,-130.107c-44.915,-44.911 -117.729,-44.911 -162.641,0l-130.106,130.107Zm268.349,138.247c31.441,-31.441 31.441,-82.412 -0,-113.848c-31.437,-31.441 -82.407,-31.441 -113.844,-0c-31.441,31.441 -31.441,82.407 -0,113.848c31.441,31.437 82.407,31.437 113.848,-0l-0.004,-0Z"/><path d="M789.501,457.041c0.183,-36.225 22.323,-57.449 54.158,-57.449c31.652,-0 50.313,20.309 50.131,54.89l0,165.031l77.941,-0l0,-178.938c0.183,-65.865 -38.606,-105.751 -97.153,-105.751c-42.627,0 -71.17,20.128 -83.979,53.242l-3.292,0l-0,-143.255l-75.747,0l0,374.702l77.941,-0l0,-162.472Zm303.096,167.777c41.53,-0 68.424,-18.115 82.148,-44.276l2.195,0l0,38.971l73.916,-0l0,-189.548c0,-66.962 -56.716,-95.141 -119.289,-95.141c-67.331,0 -111.606,32.204 -122.403,83.433l72.089,5.852c5.305,-18.661 21.954,-32.382 49.946,-32.382c26.529,0 41.716,13.356 41.716,36.407l-0,1.102c-0,18.11 -19.212,20.487 -68.06,25.246c-55.623,5.123 -105.568,23.784 -105.568,86.539c-0,55.619 39.699,83.797 93.31,83.797Zm22.318,-53.793c-23.967,0 -41.166,-11.157 -41.166,-32.564c0,-21.957 18.115,-32.754 45.56,-36.593c17.012,-2.377 44.822,-6.403 54.153,-12.627l-0,29.826c-0,29.454 -24.331,51.958 -58.547,51.958Zm409.621,-152.403c-6.949,-51.78 -48.666,-83.798 -119.654,-83.798c-71.903,0 -119.288,33.301 -119.106,87.459c-0.182,42.076 26.347,69.339 81.233,80.318l48.666,9.695c24.517,4.941 35.678,13.907 36.043,27.992c-0.365,16.652 -18.479,28.542 -45.738,28.542c-27.81,0 -46.288,-11.89 -51.047,-34.763l-76.657,4.026c7.318,53.792 53.055,86.907 127.522,86.907c72.818,0 124.958,-37.14 125.145,-92.577c-0.187,-40.619 -26.712,-64.954 -81.234,-76.111l-50.865,-10.245c-26.165,-5.674 -35.86,-14.64 -35.678,-28.178c-0.182,-16.831 18.848,-27.81 42.996,-27.81c27.077,0 43.178,14.822 47.022,32.932l71.352,-4.389Zm112.818,38.419c0.182,-36.225 22.318,-57.449 54.153,-57.449c31.653,-0 50.314,20.309 50.132,54.89l-0,165.031l77.941,-0l0,-178.938c0.182,-65.865 -38.606,-105.751 -97.153,-105.751c-42.628,0 -71.17,20.128 -83.975,53.242l-3.297,0l0,-143.255l-75.742,0l0,374.702l77.941,-0l0,-162.472Zm300.896,0c0.182,-36.225 21.772,-57.449 53.242,-57.449c31.284,-0 50.132,20.491 49.945,54.89l0,165.031l77.942,-0l-0,-178.938c-0,-65.496 -38.42,-105.751 -96.967,-105.751c-41.717,0 -71.903,20.492 -84.526,53.242l-3.297,0l0,-49.581l-74.28,0l0,281.028l77.941,-0l0,-162.472Zm348.922,167.959c85.263,0 138.319,-58.365 138.319,-144.903c-0,-87.09 -53.056,-145.273 -138.319,-145.273c-85.259,0 -138.314,58.183 -138.314,145.273c-0,86.538 53.055,144.903 138.314,144.903Zm0.369,-60.378c-39.335,0 -59.463,-36.042 -59.463,-85.076c0,-49.035 20.128,-85.255 59.463,-85.255c38.602,-0 58.729,36.225 58.729,85.255c-0,49.034 -20.127,85.076 -58.729,85.076Zm271.578,59.463c45.373,-0 68.975,-26.161 79.771,-49.581l3.293,-0l-0,45.009l76.843,-0l0,-374.706l-77.759,-0l0,140.882l-2.377,0c-10.432,-22.869 -32.936,-50.865 -79.954,-50.865c-61.657,0 -113.801,47.937 -113.801,144.539c-0,94.043 49.949,144.722 113.984,144.722Zm24.699,-62.022c-38.238,0 -59.098,-34.034 -59.098,-83.064c0,-48.67 20.492,-82.149 59.098,-82.149c37.873,0 59.098,32.017 59.098,82.149c-0,50.128 -21.594,83.064 -59.098,83.064Zm306.752,62.937c69.526,0 116.361,-33.848 127.34,-85.992l-72.086,-4.754c-7.868,21.402 -27.991,32.563 -53.974,32.563c-38.971,0 -63.67,-25.796 -63.67,-67.695l-0,-0.182l191.378,-0l-0,-21.407c-0,-95.505 -57.818,-142.709 -132.098,-142.709c-82.7,0 -136.306,58.73 -136.306,145.455c-0,89.102 52.877,144.721 139.416,144.721Zm-62.39,-174.361c1.648,-32.017 25.983,-57.632 60.559,-57.632c33.848,0 57.268,24.153 57.45,57.632l-118.009,-0Z" style="fill-rule:nonzero;"/></g></svg>