<?xml version="1.0" encoding="UTF-8" standalone="no"?><!DOCTYPE svg PUBLIC "-//W3C//DTD SVG 1.1//EN" "http://www.w3.org/Graphics/SVG/1.1/DTD/svg11.dtd"><svg width="100%" height="100%" viewBox="0 0 3680 934" version="1.1" xmlns="http://www.w3.org/2000/svg" xmlns:xlink="http://www.w3.org/1999/xlink" xml:space="preserve" xmlns:serif="http://www.serif.com/" style="fill-rule:evenodd;clip-rule:evenodd;stroke-linejoin:round;stroke-miterlimit:2;"><rect id="Artboard1" x="0" y="0" width="3125" height="750" style="fill:none;"/><g><g><path d="M853.03,290.657l77.118,-0l-0,280.914l142.774,-0l-0,71.169l-219.892,-0l-0,-352.083Zm253.987,113.36l74.087,-0l0,238.591l-74.087,-0l-0,-238.591Zm37.042,-118.616c23.575,0.004 42.972,19.404 42.972,42.978c-0,23.577 -19.401,42.978 -42.978,42.978c-23.577,0 -42.979,-19.401 -42.979,-42.978c0,-23.577 19.402,-42.978 42.979,-42.978l0.006,-0m346.959,5.202l74.088,0l-0,210.414l83.966,-97.108l90.834,0l-97.239,110.459l95.193,128.34l-93.118,0l-78.648,-117.938l-0.972,0l-0,117.923l-74.088,-0l-0.016,-352.09Zm-268.834,113.438l71.146,0l0,32.606l1.011,-0c14.459,-24.774 41.487,-39.622 70.151,-38.541c75.13,-0 88.958,49.43 88.958,113.646l0,130.84l-74.087,-0l-0,-115.999c-0,-27.69 -0.508,-63.283 -38.586,-63.283c-38.51,-0 -44.452,30.152 -44.452,61.268l-0,117.985l-74.088,-0l-0.053,-238.522Z" style="fill-rule:nonzero;"/><path d="M1895.93,495.562c0.007,-0.349 0.011,-0.7 0.011,-1.049c0,-24.368 -20.052,-44.421 -44.421,-44.421c-0.36,0 -0.718,0.005 -1.078,0.014c-26.759,-1.666 -50.246,18.726 -52.353,45.456l97.841,-0Zm62.757,105.727c-24.916,30.215 -62.153,47.661 -101.314,47.471c-74.087,0 -133.403,-49.455 -133.403,-126.034c0,-76.579 59.309,-126.009 133.403,-126.009c69.248,-0 112.674,49.39 112.674,126.009l-0,23.23l-171.958,0c4.406,27.115 28.369,47.051 55.833,46.452c21.406,-0.134 41.339,-11.127 52.873,-29.157l51.892,38.038Zm165.785,-139.601c-37.042,0 -59.268,24.736 -59.268,60.776c-0,36.041 22.217,60.797 59.268,60.797c37.052,-0 59.325,-24.695 59.325,-60.797c0,-36.103 -22.235,-60.776 -59.325,-60.776m127.531,180.875l-68.206,-0l0,-31.642l-1.011,0c-17.332,23.311 -44.608,37.224 -73.656,37.568c-71.184,0 -118.076,-51.376 -118.076,-124.027c-0,-66.723 41.497,-127.993 109.71,-127.993c30.662,-0 59.302,8.389 76.102,31.641l0.973,0l0,-137.532l74.155,0l0.009,351.985Zm500.157,0.139l-74.088,-0l0,-116.024c0,-27.667 -0.494,-63.283 -38.532,-63.283c-38.588,-0 -44.492,30.143 -44.492,61.268l-0,118.03l-74.085,-0l-0,-238.591l71.122,-0l-0,32.605l0.997,0c14.481,-24.76 41.507,-39.603 70.174,-38.539c75.089,0 88.935,49.39 88.935,113.646l-0.031,130.888Zm-314.792,-271.215l-0.009,0c-23.586,0 -42.994,-19.406 -42.994,-42.991c0,-23.586 19.408,-42.994 42.994,-42.994c23.583,-0 42.989,19.403 42.994,42.985l-0,0.009c-0,23.581 -19.404,42.989 -42.985,42.991m37.042,271.215l-74.163,-0l-0,-238.6l74.163,-0l0,238.6Zm314.685,-426.001l-426.079,0c-20,-0.226 -36.651,16.038 -36.895,36.039l0,427.845c0.235,20.012 16.884,36.293 36.895,36.079l426.079,-0c20.052,0.252 36.765,-16.027 37.043,-36.079l-0,-427.874c-0.284,-20.044 -17,-36.305 -37.043,-36.041" style="fill-rule:nonzero;"/></g></g></svg>