<?xml version="1.0" encoding="UTF-8" standalone="no"?><!DOCTYPE svg PUBLIC "-//W3C//DTD SVG 1.1//EN" "http://www.w3.org/Graphics/SVG/1.1/DTD/svg11.dtd"><svg width="100%" height="100%" viewBox="0 0 883 224" version="1.1" xmlns="http://www.w3.org/2000/svg" xmlns:xlink="http://www.w3.org/1999/xlink" xml:space="preserve" xmlns:serif="http://www.serif.com/" style="fill-rule:evenodd;clip-rule:evenodd;stroke-linejoin:round;stroke-miterlimit:2;"><rect id="Artboard1" x="0" y="0" width="883" height="224" style="fill:none;"/><clipPath id="_clip1"><rect x="0" y="0" width="883" height="224"/></clipPath><g clip-path="url(#_clip1)"><path d="M910.566,211.296c0.013,0 0.027,0 0.041,0c2.271,0 4.141,-1.869 4.141,-4.14c-0,-0.08 -0.003,-0.159 -0.007,-0.239c-0,-3.105 -1.874,-4.589 -5.718,-4.589l-6.211,-0l-0,16.26l2.336,-0l-0,-7.088l2.871,-0l0.065,0.086l4.455,7.002l2.499,-0l-4.793,-7.247l0.321,-0.045Zm-2.702,-1.629l-2.709,0l-0,-5.496l3.433,-0c1.774,-0 3.796,0.289 3.796,2.612c0,2.671 -2.046,2.884 -4.534,2.884m-907.388,-176.158l34.482,-0l0,125.606l63.839,-0l-0,31.822l-98.321,0l-0,-157.428Zm113.566,50.687l33.127,0l-0,106.682l-33.127,0l-0,-106.682Zm16.563,-53.037c10.541,0.002 19.214,8.676 19.214,19.217c-0,10.542 -8.675,19.217 -19.217,19.217c-10.542,-0 -19.217,-8.675 -19.217,-19.217c-0,-10.542 8.675,-19.217 19.217,-19.217c0.001,-0 0.002,-0 0.003,-0m155.137,2.326l33.127,-0l0,94.083l37.544,-43.42l40.615,-0l-43.479,49.39l42.564,57.385l-41.636,0l-35.166,-52.734l-0.435,0l-0,52.727l-33.127,0l-0.007,-157.431Zm-120.205,50.722l31.812,-0l-0,14.579l0.452,-0c6.465,-11.077 18.55,-17.716 31.367,-17.233c33.593,-0 39.776,22.102 39.776,50.815l0,58.503l-33.127,0l0,-51.867c0,-12.381 -0.227,-28.296 -17.253,-28.296c-17.219,0 -19.876,13.482 -19.876,27.395l-0,52.755l-33.127,-0l-0.024,-106.651Z" style="fill-rule:nonzero;"/><path d="M466.777,125.129c0.003,-0.156 0.005,-0.313 0.005,-0.469c0,-10.896 -8.966,-19.862 -19.862,-19.862c-0.161,0 -0.321,0.002 -0.482,0.006c-11.965,-0.745 -22.467,8.373 -23.409,20.325l43.748,-0Zm28.061,47.274c-11.141,13.51 -27.791,21.311 -45.301,21.226c-33.127,-0 -59.649,-22.113 -59.649,-56.354c-0,-34.241 26.519,-56.343 59.649,-56.343c30.963,-0 50.38,22.084 50.38,56.343l0,10.387l-76.888,-0c1.97,12.124 12.685,21.038 24.965,20.77c9.571,-0.06 18.484,-4.975 23.641,-13.037l23.203,17.008Zm74.128,-62.42c-16.563,0 -26.501,11.06 -26.501,27.175c-0,16.115 9.934,27.184 26.501,27.184c16.567,0 26.526,-11.042 26.526,-27.184c-0,-16.143 -9.942,-27.175 -26.526,-27.175m57.023,80.875l-30.497,-0l-0,-14.148l-0.452,-0c-7.75,10.423 -19.946,16.644 -32.934,16.798c-31.829,-0 -52.796,-22.972 -52.796,-55.457c0,-29.834 18.555,-57.23 49.055,-57.23c13.71,0 26.516,3.751 34.028,14.148l0.435,0l-0,-61.495l33.157,0l0.004,157.384Zm223.637,0.062l-33.127,-0l0,-51.878c0,-12.371 -0.221,-28.296 -17.229,-28.296c-17.254,-0 -19.894,13.478 -19.894,27.395l0,52.775l-33.126,0l-0,-106.682l31.801,0l0,14.579l0.446,0c6.475,-11.071 18.559,-17.708 31.377,-17.232c33.575,-0 39.766,22.084 39.766,50.815l-0.014,58.524Zm-140.754,-121.269c-0.002,0 -0.003,0 -0.004,0c-10.546,0 -19.224,-8.677 -19.224,-19.223c0,-10.546 8.678,-19.224 19.224,-19.224c10.545,-0 19.222,8.676 19.224,19.22c-0,0.001 -0,0.002 -0,0.004c-0,10.544 -8.676,19.222 -19.22,19.223m16.563,121.269l-33.161,-0l-0,-106.686l33.161,0l-0,106.686Zm140.706,-190.479l-190.514,-0c-8.943,-0.101 -16.388,7.171 -16.497,16.114l-0,191.304c0.105,8.948 7.549,16.228 16.497,16.132l190.514,0c8.966,0.113 16.439,-7.166 16.563,-16.132l0,-191.317c-0.127,-8.962 -7.601,-16.233 -16.563,-16.115m42.006,194.658c-8.308,0.08 -15.099,6.936 -15.099,15.244c-0,8.364 6.882,15.246 15.245,15.246c8.364,-0 15.245,-6.882 15.245,-15.246c0,-8.308 -6.791,-15.164 -15.098,-15.244l-0.293,-0m-0,28.744c-0.075,0.001 -0.149,0.002 -0.223,0.002c-7.333,0 -13.368,-6.034 -13.368,-13.368c0,-7.333 6.035,-13.368 13.368,-13.368c7.25,-0 13.246,5.897 13.366,13.145l0,0.225c0.153,7.173 -5.622,13.202 -12.795,13.357l-0.345,0" style="fill-rule:nonzero;"/></g></svg>