<?xml version="1.0" encoding="UTF-8" standalone="no"?><!DOCTYPE svg PUBLIC "-//W3C//DTD SVG 1.1//EN" "http://www.w3.org/Graphics/SVG/1.1/DTD/svg11.dtd"><svg width="100%" height="100%" viewBox="0 0 11267 2097" version="1.1" xmlns="http://www.w3.org/2000/svg" xmlns:xlink="http://www.w3.org/1999/xlink" xml:space="preserve" xmlns:serif="http://www.serif.com/" style="fill-rule:evenodd;clip-rule:evenodd;stroke-linejoin:round;stroke-miterlimit:2;"><rect id="Artboard2" x="0" y="0" width="11266.1" height="2096.8" style="fill:none;"/><clipPath id="_clip1"><rect x="0" y="0" width="11266.1" height="2096.8"/></clipPath><g clip-path="url(#_clip1)"><rect id="Artboard1" x="-875" y="-516.667" width="13020.8" height="3125" style="fill:none;"/><g><path d="M2646.32,1667.63l-0,-1447.12l492.445,0c123.117,0 228.446,19.7 315.992,59.104c88.917,39.409 156.621,96.475 203.129,171.213c46.509,74.733 69.763,165.092 69.763,271.079c-0,73.375 -14.358,140.633 -43.083,201.783c-27.355,61.146 -67.03,114.138 -119.013,158.98c-50.608,43.479 -111.483,77.445 -182.613,101.904c-71.137,23.108 -150.47,34.654 -238.016,34.654c-46.509,-0 -95.754,-4.079 -147.738,-12.233l0,460.641l-350.866,0Zm350.866,-1151.59l0,397.45c47.884,6.792 91.659,10.192 131.321,10.192c76.608,-0 135.425,-16.988 176.463,-50.959c42.408,-35.329 63.604,-86.283 63.604,-152.862c-0,-65.225 -20.521,-115.5 -61.554,-150.829c-39.663,-35.33 -97.804,-52.992 -174.405,-52.992l-135.429,-0Z" style="fill-rule:nonzero;"/><path d="M4313.92,1698.2c-82.071,0 -158.684,-14.271 -229.809,-42.796c-69.762,-28.533 -131.316,-68.625 -184.671,-120.258c-51.983,-51.633 -92.333,-112.104 -121.058,-181.396c-28.729,-69.3 -43.087,-144.717 -43.087,-226.246c-0,-81.525 14.358,-156.941 43.087,-226.237c30.1,-70.659 71.133,-131.804 123.117,-183.438c53.346,-52.996 115.587,-93.758 186.712,-122.296c72.5,-29.891 150.471,-44.837 233.921,-44.837c82.071,-0 157.992,14.266 227.758,42.8c71.125,28.537 132.68,69.3 184.663,122.292c53.354,51.637 94.392,112.104 123.117,181.4c28.729,69.3 43.087,144.712 43.087,226.241c0,81.525 -15.046,157.617 -45.146,228.284c-28.716,69.291 -69.766,129.762 -123.108,181.395c-51.983,51.634 -114.225,92.4 -186.725,122.296c-71.125,28.525 -148.413,42.796 -231.858,42.796Zm4.1,-299.608c45.145,-0 86.183,-11.554 123.12,-34.65c36.938,-24.459 65.65,-57.071 86.171,-97.838c21.892,-42.116 32.838,-89 32.838,-140.637c-0,-52.992 -10.946,-99.871 -32.838,-140.634c-20.521,-42.125 -49.233,-74.733 -86.171,-97.837c-36.937,-24.458 -77.975,-36.683 -123.12,-36.683c-45.134,-0 -86.171,12.225 -123.109,36.683c-36.937,23.104 -66.341,55.712 -88.233,97.837c-20.517,40.763 -30.775,87.642 -30.775,140.634c-0,51.637 10.258,98.521 30.775,140.637c21.892,40.767 51.296,73.379 88.233,97.838c36.938,23.096 77.975,34.65 123.109,34.65Z" style="fill-rule:nonzero;"/><rect x="4984.75" y="143.054" width="334.458" height="1524.58"/><path d="M5653.25,2087.5c-39.662,0 -77.287,-4.075 -112.85,-12.229c-35.563,-8.154 -69.075,-21.058 -100.542,-38.729l59.505,-254.775c15.045,6.791 32.829,12.908 53.345,18.346c21.892,5.437 42.409,8.154 61.555,8.154c36.937,-0 69.087,-11.554 96.441,-34.65c27.354,-21.738 50.608,-56.388 69.763,-103.954l8.208,-18.334l-437.05,-1070.06l367.288,-0l225.7,713.375l201.091,-713.375l354.967,-0l-434.992,1163.81c-43.771,116.859 -99.175,203.142 -166.204,258.85c-67.025,55.713 -149.1,83.571 -246.225,83.571Z" style="fill-rule:nonzero;"/><path d="M6831.08,1667.63l-361.137,-1086.37l348.821,-0l172.362,686.875l196.971,-686.875l295.475,-0l196.979,690.95l178.517,-690.95l336.508,-0l-361.137,1086.37l-309.834,0l-192.87,-680.762l-194.934,680.762l-305.721,0Z" style="fill-rule:nonzero;"/><path d="M8725.17,1698.2c-82.084,0 -158.684,-14.271 -229.813,-42.796c-69.762,-28.533 -131.325,-68.625 -184.671,-120.258c-51.983,-51.633 -92.333,-112.104 -121.058,-181.396c-28.729,-69.3 -43.087,-144.717 -43.087,-226.246c-0,-81.525 14.358,-156.941 43.087,-226.237c30.088,-70.659 71.125,-131.804 123.108,-183.438c53.354,-52.996 115.596,-93.758 186.721,-122.296c72.5,-29.891 150.475,-44.837 233.921,-44.837c82.071,-0 157.983,14.266 227.746,42.8c71.137,28.537 132.692,69.3 184.675,122.292c53.346,51.637 94.379,112.104 123.108,181.4c28.725,69.3 43.096,144.712 43.096,226.241c0,81.525 -15.054,157.617 -45.146,228.284c-28.729,69.291 -69.762,129.762 -123.108,181.395c-51.983,51.634 -114.225,92.4 -186.725,122.296c-71.125,28.525 -148.421,42.796 -231.854,42.796Zm4.096,-299.608c45.145,-0 86.183,-11.554 123.12,-34.65c36.925,-24.459 65.655,-57.071 86.171,-97.838c21.892,-42.116 32.825,-89 32.825,-140.637c0,-52.992 -10.933,-99.871 -32.825,-140.634c-20.516,-42.125 -49.246,-74.733 -86.171,-97.837c-36.937,-24.458 -77.975,-36.683 -123.12,-36.683c-45.134,-0 -86.18,12.225 -123.109,36.683c-36.933,23.104 -66.35,55.712 -88.229,97.837c-20.521,40.763 -30.779,87.642 -30.779,140.634c-0,51.637 10.258,98.521 30.779,140.637c21.879,40.767 51.296,73.379 88.229,97.838c36.929,23.096 77.975,34.65 123.109,34.65Z" style="fill-rule:nonzero;"/><path d="M9396,1667.63l0,-1086.37l307.779,-0l12.309,173.25c25.991,-59.788 62.241,-105.988 108.75,-138.6c46.512,-32.609 100.541,-48.917 162.095,-48.917c17.784,-0 35.563,1.358 53.346,4.075c17.792,2.721 33.525,7.475 47.196,14.271l-32.825,330.187c-15.046,-5.433 -30.779,-8.833 -47.2,-10.191c-15.042,-2.717 -30.775,-4.075 -47.196,-4.075c-76.596,-0 -134.054,21.741 -172.35,65.22c-38.3,42.125 -57.458,103.95 -57.458,185.471l-0,515.675l-334.446,0Z" style="fill-rule:nonzero;"/><path d="M10141.6,1667.63l0,-1524.58l334.458,0l0,872.35l361.129,-434.137l379.592,-0l-418.579,481.016l467.825,605.35l-412.421,0l-377.546,-534.008l0,534.008l-334.458,0Z" style="fill-rule:nonzero;"/><path d="M4.787,1664.33l0,-1236.98c0,-234.375 188.8,-423.175 423.175,-423.175l1236.98,-0c234.371,-0 423.179,188.8 423.179,423.175l-0,598.958c-0,234.375 -188.808,423.183 -423.179,423.183l-240.888,0l0,214.842c0,234.367 -188.808,423.175 -423.179,423.175l-572.913,-0c-234.375,-0 -423.175,-188.808 -423.175,-423.175Zm651.038,-1002.61l-540.363,-0l0,-240.884c0,-169.271 136.721,-312.5 312.5,-312.5l227.863,0l0,553.384Zm1009.12,683.6l-227.871,-0l-0,-559.905l540.371,0l-0,247.4c-0,169.271 -136.721,312.505 -312.5,312.505Zm-664.067,638.016l-227.862,0l-0,-514.325l540.366,0l0,201.825c0,169.267 -136.725,312.5 -312.504,312.5Zm-227.862,-638.016l540.366,-0l0,-559.905l-540.366,0l-0,559.905Zm664.058,-683.6l540.371,-0l-0,-234.375c-0,-175.78 -143.23,-312.496 -312.5,-312.496l-227.871,-0l-0,546.871Zm-123.692,-0l-540.366,-0l-0,-553.384l540.366,0l0,553.384Zm-1204.42,800.783l0,201.825c0,175.775 143.229,312.5 312.5,312.5l234.371,-0l0,-514.325l-546.871,-0Zm546.871,-117.183l-546.871,-0l0,-559.905l546.871,0l0,559.905Z"/></g></g></svg>