<svg width="1000" height="185" viewBox="0 0 1000 185" fill="none" xmlns="http://www.w3.org/2000/svg">
<path d="M234.568 147.716V19.211H278.297C289.23 19.211 298.583 20.9605 306.357 24.4597C314.253 27.9589 320.265 33.0267 324.395 39.6631C328.525 46.2995 330.59 54.3235 330.59 63.7351C330.59 70.2508 329.315 76.2235 326.764 81.6533C324.335 87.0831 320.812 91.7889 316.196 95.7707C311.702 99.6319 306.296 102.648 299.98 104.82C293.663 106.872 286.618 107.897 278.844 107.897C274.714 107.897 270.341 107.535 265.725 106.811V147.716H234.568ZM265.725 45.4549V80.7484C269.977 81.3517 273.864 81.6533 277.386 81.6533C284.189 81.6533 289.412 80.1451 293.056 77.1285C296.822 73.9913 298.704 69.4665 298.704 63.5541C298.704 57.7623 296.882 53.2978 293.238 50.1606C289.716 47.0234 284.553 45.4549 277.751 45.4549H265.725Z" fill="#333342"/>
<path d="M382.652 150.43C375.364 150.43 368.561 149.163 362.245 146.63C356.05 144.096 350.584 140.536 345.846 135.951C341.23 131.366 337.647 125.996 335.096 119.843C332.545 113.689 331.27 106.992 331.27 99.7525C331.27 92.5129 332.545 85.8161 335.096 79.6624C337.769 73.388 341.413 67.9582 346.029 63.3731C350.766 58.6673 356.293 55.0474 362.609 52.5135C369.047 49.859 375.971 48.5317 383.381 48.5317C390.669 48.5317 397.411 49.7987 403.606 52.3326C409.922 54.8664 415.388 58.4863 420.004 63.1921C424.742 67.7772 428.386 73.1467 430.937 79.3004C433.488 85.4541 434.763 92.1509 434.763 99.3906C434.763 106.63 433.427 113.387 430.754 119.662C428.204 125.815 424.559 131.185 419.822 135.77C415.206 140.355 409.679 143.975 403.241 146.63C396.925 149.163 390.062 150.43 382.652 150.43ZM383.016 123.825C387.025 123.825 390.669 122.799 393.949 120.748C397.229 118.576 399.779 115.68 401.601 112.06C403.545 108.32 404.517 104.157 404.517 99.5716C404.517 94.8658 403.545 90.7029 401.601 87.0831C399.779 83.3426 397.229 80.4467 393.949 78.3954C390.669 76.2235 387.025 75.1376 383.016 75.1376C379.008 75.1376 375.364 76.2235 372.084 78.3954C368.804 80.4467 366.193 83.3426 364.249 87.0831C362.427 90.7029 361.516 94.8658 361.516 99.5716C361.516 104.157 362.427 108.32 364.249 112.06C366.193 115.68 368.804 118.576 372.084 120.748C375.364 122.799 379.008 123.825 383.016 123.825Z" fill="#333342"/>
<path d="M442.221 147.716V12.3333H471.921V147.716H442.221Z" fill="#333342"/>
<path d="M501.582 185C498.06 185 494.719 184.638 491.561 183.914C488.403 183.19 485.427 182.044 482.633 180.475L487.917 157.851C489.253 158.454 490.832 158.997 492.654 159.48C494.598 159.963 496.42 160.204 498.12 160.204C501.4 160.204 504.255 159.178 506.684 157.127C509.113 155.197 511.178 152.12 512.879 147.896L513.608 146.268L474.798 51.2466H507.413L527.455 114.594L545.312 51.2466H576.833L538.206 154.593C534.319 164.97 529.399 172.632 523.447 177.579C517.495 182.526 510.207 185 501.582 185Z" fill="#333342"/>
<path d="M606.175 147.716L574.106 51.2466H605.081L620.387 112.241L637.878 51.2466H664.116L681.608 112.603L697.46 51.2466H727.342L695.273 147.716H667.76L650.633 87.2641L633.323 147.716H606.175Z" fill="#333342"/>
<path d="M774.37 150.43C767.081 150.43 760.279 149.163 753.963 146.63C747.768 144.096 742.301 140.536 737.564 135.951C732.948 131.366 729.365 125.996 726.814 119.843C724.263 113.689 722.988 106.992 722.988 99.7525C722.988 92.5129 724.263 85.8161 726.814 79.6624C729.486 73.388 733.13 67.9582 737.746 63.3731C742.484 58.6673 748.011 55.0474 754.327 52.5135C760.765 49.859 767.689 48.5317 775.099 48.5317C782.387 48.5317 789.128 49.7987 795.323 52.3326C801.64 54.8664 807.106 58.4863 811.722 63.1921C816.459 67.7772 820.103 73.1467 822.654 79.3004C825.205 85.4541 826.481 92.1509 826.481 99.3906C826.481 106.63 825.144 113.387 822.472 119.662C819.921 125.815 816.277 131.185 811.54 135.77C806.924 140.355 801.397 143.975 794.959 146.63C788.643 149.163 781.779 150.43 774.37 150.43ZM774.734 123.825C778.743 123.825 782.387 122.799 785.667 120.748C788.946 118.576 791.497 115.68 793.319 112.06C795.263 108.32 796.234 104.157 796.234 99.5716C796.234 94.8658 795.263 90.7029 793.319 87.0831C791.497 83.3426 788.946 80.4467 785.667 78.3954C782.387 76.2235 778.743 75.1376 774.734 75.1376C770.726 75.1376 767.081 76.2235 763.802 78.3954C760.522 80.4467 757.91 83.3426 755.967 87.0831C754.145 90.7029 753.234 94.8658 753.234 99.5716C753.234 104.157 754.145 108.32 755.967 112.06C757.91 115.68 760.522 118.576 763.802 120.748C767.081 122.799 770.726 123.825 774.734 123.825Z" fill="#333342"/>
<path d="M833.939 147.716V51.2466H861.27L862.363 66.631C864.671 61.3218 867.89 57.2193 872.02 54.3235C876.15 51.4276 880.948 49.9797 886.414 49.9797C887.993 49.9797 889.572 50.1003 891.151 50.3416C892.731 50.583 894.128 51.0053 895.342 51.6086L892.427 80.9293C891.091 80.4467 889.694 80.145 888.236 80.0244C886.9 79.7831 885.503 79.6624 884.045 79.6624C877.243 79.6624 872.141 81.593 868.74 85.4541C865.339 89.1947 863.638 94.6848 863.638 101.924V147.716H833.939Z" fill="#333342"/>
<path d="M900.151 147.716V12.3333H929.851V89.798L961.919 51.2466H995.627L958.457 93.9608L1000 147.716H963.377L929.851 100.296V147.716H900.151Z" fill="#333342"/>
<path fill-rule="evenodd" clip-rule="evenodd" d="M0 147.422V37.5781C0 16.7656 16.7656 0 37.5781 0H147.422C168.234 0 185 16.7656 185 37.5781V90.7655C185 111.578 168.234 128.344 147.422 128.344H126.031V147.422C126.031 168.234 109.265 185 88.4528 185H37.5781C16.7656 185 0 168.234 0 147.422ZM57.8124 58.3906H9.82812V37C9.82812 21.9688 21.9687 9.25 37.5781 9.25H57.8124V58.3906ZM147.422 119.094H127.187V69.3748H175.172V91.3436C175.172 106.375 163.031 119.094 147.422 119.094ZM88.4528 175.75H68.2185V130.078H116.203V148C116.203 163.031 104.062 175.75 88.4528 175.75ZM68.2185 119.094H116.203V69.3748H68.2185V119.094ZM127.187 58.3906H175.172V37.5781C175.172 21.9688 162.453 9.82813 147.422 9.82813H127.187V58.3906ZM116.203 58.3906H68.2185V9.25H116.203V58.3906ZM9.24999 129.5V147.422C9.24999 163.031 21.9687 175.172 37 175.172H57.8124V129.5H9.24999ZM57.8124 119.094H9.24999V69.3748H57.8124V119.094Z" fill="#333342"/>
</svg>
