<?xml version="1.0" encoding="UTF-8" standalone="no"?><!DOCTYPE svg PUBLIC "-//W3C//DTD SVG 1.1//EN" "http://www.w3.org/Graphics/SVG/1.1/DTD/svg11.dtd"><svg width="100%" height="100%" viewBox="0 0 3125 750" version="1.1" xmlns="http://www.w3.org/2000/svg" xmlns:xlink="http://www.w3.org/1999/xlink" xml:space="preserve" xmlns:serif="http://www.serif.com/" style="fill-rule:evenodd;clip-rule:evenodd;stroke-linejoin:round;stroke-miterlimit:2;"><rect id="Artboard1" x="0" y="0" width="3125" height="750" style="fill:none;"/><g><path d="M845.116,524.232l0,-347.31l118.187,-0c29.548,-0 54.827,4.728 75.838,14.185c21.34,9.458 37.589,23.154 48.751,41.091c11.162,17.936 16.743,39.622 16.743,65.059c0,17.61 -3.446,33.752 -10.34,48.428c-6.565,14.675 -16.087,27.393 -28.563,38.155c-12.146,10.435 -26.756,18.587 -43.827,24.457c-17.073,5.546 -36.113,8.317 -57.124,8.317c-11.162,-0 -22.981,-0.979 -35.457,-2.936l0,110.554l-84.208,0Zm84.208,-276.381l0,95.388c11.492,1.63 21.998,2.446 31.517,2.446c18.386,-0 32.502,-4.077 42.351,-12.23c10.178,-8.479 15.265,-20.708 15.265,-36.687c-0,-15.654 -4.925,-27.72 -14.773,-36.199c-9.519,-8.479 -23.473,-12.718 -41.857,-12.718l-32.503,0Z" style="fill-rule:nonzero;"/><path d="M1245.34,531.568c-19.697,-0 -38.084,-3.425 -55.154,-10.271c-16.743,-6.848 -31.516,-16.47 -44.321,-28.862c-12.476,-12.392 -22.16,-26.905 -29.054,-43.535c-6.895,-16.632 -10.341,-34.732 -10.341,-54.299c-0,-19.566 3.446,-37.666 10.341,-54.297c7.224,-16.958 17.072,-31.633 29.548,-44.025c12.803,-12.719 27.741,-22.502 44.811,-29.351c17.4,-7.174 36.113,-10.761 56.141,-10.761c19.697,-0 37.918,3.424 54.662,10.272c17.07,6.849 31.843,16.632 44.319,29.35c12.805,12.393 22.654,26.905 29.548,43.536c6.895,16.632 10.341,34.731 10.341,54.298c-0,19.566 -3.611,37.828 -10.835,54.788c-6.892,16.63 -16.744,31.143 -29.546,43.535c-12.476,12.392 -27.414,22.176 -44.814,29.351c-17.07,6.846 -35.619,10.271 -55.646,10.271Zm0.984,-71.906c10.835,0 20.684,-2.773 29.549,-8.316c8.865,-5.87 15.756,-13.697 20.681,-23.481c5.254,-10.108 7.881,-21.36 7.881,-33.753c-0,-12.718 -2.627,-23.969 -7.881,-33.752c-4.925,-10.11 -11.816,-17.936 -20.681,-23.481c-8.865,-5.87 -18.714,-8.804 -29.549,-8.804c-10.832,-0 -20.681,2.934 -29.546,8.804c-8.865,5.545 -15.922,13.371 -21.176,23.481c-4.924,9.783 -7.386,21.034 -7.386,33.752c-0,12.393 2.462,23.645 7.386,33.753c5.254,9.784 12.311,17.611 21.176,23.481c8.865,5.543 18.714,8.316 29.546,8.316Z" style="fill-rule:nonzero;"/><rect x="1406.34" y="158.333" width="80.27" height="365.899" style="fill-rule:nonzero;"/><path d="M1566.78,625c-9.519,0 -18.549,-0.978 -27.084,-2.935c-8.535,-1.957 -16.578,-5.054 -24.13,-9.295l14.281,-61.146c3.611,1.63 7.879,3.098 12.803,4.403c5.254,1.305 10.178,1.957 14.773,1.957c8.865,-0 16.581,-2.773 23.146,-8.316c6.565,-5.217 12.146,-13.533 16.743,-24.949l1.97,-4.4l-104.892,-256.815l88.149,0l54.168,171.21l48.262,-171.21l85.192,0l-104.398,279.315c-10.505,28.046 -23.802,48.754 -39.889,62.124c-16.086,13.371 -35.784,20.057 -59.094,20.057Z" style="fill-rule:nonzero;"/><path d="M1849.46,524.232l-86.673,-260.728l83.717,0l41.367,164.85l47.273,-164.85l70.914,0l47.275,165.828l42.844,-165.828l80.762,0l-86.673,260.728l-74.36,0l-46.289,-163.383l-46.784,163.383l-73.373,0Z" style="fill-rule:nonzero;"/><path d="M2304.04,531.568c-19.7,-0 -38.084,-3.425 -55.155,-10.271c-16.743,-6.848 -31.518,-16.47 -44.321,-28.862c-12.476,-12.392 -22.16,-26.905 -29.054,-43.535c-6.895,-16.632 -10.341,-34.732 -10.341,-54.299c0,-19.566 3.446,-37.666 10.341,-54.297c7.221,-16.958 17.07,-31.633 29.546,-44.025c12.805,-12.719 27.743,-22.502 44.813,-29.351c17.4,-7.174 36.114,-10.761 56.141,-10.761c19.697,-0 37.916,3.424 54.659,10.272c17.073,6.849 31.846,16.632 44.322,29.35c12.803,12.393 22.651,26.905 29.546,43.536c6.894,16.632 10.343,34.731 10.343,54.298c0,19.566 -3.613,37.828 -10.835,54.788c-6.895,16.63 -16.743,31.143 -29.546,43.535c-12.476,12.392 -27.414,22.176 -44.814,29.351c-17.07,6.846 -35.621,10.271 -55.645,10.271Zm0.983,-71.906c10.835,0 20.684,-2.773 29.549,-8.316c8.862,-5.87 15.757,-13.697 20.681,-23.481c5.254,-10.108 7.878,-21.36 7.878,-33.753c0,-12.718 -2.624,-23.969 -7.878,-33.752c-4.924,-10.11 -11.819,-17.936 -20.681,-23.481c-8.865,-5.87 -18.714,-8.804 -29.549,-8.804c-10.832,-0 -20.683,2.934 -29.546,8.804c-8.864,5.545 -15.924,13.371 -21.175,23.481c-4.925,9.783 -7.387,21.034 -7.387,33.752c0,12.393 2.462,23.645 7.387,33.753c5.251,9.784 12.311,17.611 21.175,23.481c8.863,5.543 18.714,8.316 29.546,8.316Z" style="fill-rule:nonzero;"/><path d="M2465.04,524.232l-0,-260.728l73.867,0l2.954,41.58c6.238,-14.349 14.938,-25.437 26.1,-33.264c11.163,-7.826 24.13,-11.74 38.903,-11.74c4.268,0 8.535,0.326 12.803,0.978c4.27,0.653 8.046,1.794 11.327,3.425l-7.878,79.245c-3.611,-1.304 -7.387,-2.12 -11.328,-2.446c-3.61,-0.652 -7.386,-0.978 -11.327,-0.978c-18.383,-0 -32.173,5.218 -41.364,15.653c-9.192,10.11 -13.79,24.948 -13.79,44.513l0,123.762l-80.267,0Z" style="fill-rule:nonzero;"/><path d="M2643.99,524.232l0,-365.899l80.27,0l0,209.364l86.671,-104.193l91.102,0l-100.459,115.444l112.278,145.284l-98.981,0l-90.611,-128.162l0,128.162l-80.27,0Z" style="fill-rule:nonzero;"/><path d="M211.149,523.438l-0,-296.876c-0,-56.25 45.312,-101.562 101.562,-101.562l296.875,0c56.249,0 101.563,45.312 101.563,101.562l-0,143.75c-0,56.25 -45.314,101.564 -101.563,101.564l-57.813,-0l-0,51.562c-0,56.248 -45.314,101.562 -101.563,101.562l-137.499,0c-56.25,0 -101.562,-45.314 -101.562,-101.562Zm156.249,-240.626l-129.687,0l0,-57.812c0,-40.625 32.813,-75 75,-75l54.687,0l0,132.812Zm242.188,164.064l-54.689,-0l0,-134.377l129.689,0l0,59.376c0,40.625 -32.813,75.001 -75,75.001Zm-159.376,153.124l-54.687,0l-0,-123.438l129.688,0l-0,48.438c-0,40.624 -32.814,75 -75.001,75Zm-54.687,-153.124l129.688,-0l-0,-134.377l-129.688,0l-0,134.377Zm159.374,-164.064l129.689,0l0,-56.25c0,-42.187 -34.375,-74.999 -75,-74.999l-54.689,-0l0,131.249Zm-29.686,0l-129.688,0l-0,-132.812l129.688,0l-0,132.812Zm-289.062,192.188l-0,48.438c-0,42.186 34.375,75 75,75l56.249,-0l0,-123.438l-131.249,0Zm131.249,-28.124l-131.249,-0l-0,-134.377l131.249,0l0,134.377Z"/></g></svg>