<?xml version="1.0" encoding="UTF-8" standalone="no"?><!DOCTYPE svg PUBLIC "-//W3C//DTD SVG 1.1//EN" "http://www.w3.org/Graphics/SVG/1.1/DTD/svg11.dtd"><svg width="100%" height="100%" viewBox="0 0 12143 2080" version="1.1" xmlns="http://www.w3.org/2000/svg" xmlns:xlink="http://www.w3.org/1999/xlink" xml:space="preserve" xmlns:serif="http://www.serif.com/" style="fill-rule:evenodd;clip-rule:evenodd;stroke-linejoin:round;stroke-miterlimit:2;"><rect id="Artboard2" x="0" y="0" width="12142.1" height="2079.17" style="fill:none;"/><clipPath id="_clip1"><rect x="0" y="0" width="12142.1" height="2079.17"/></clipPath><g clip-path="url(#_clip1)"><rect id="Artboard1" x="-437.5" y="-520.833" width="13020.8" height="3125" style="fill:none;"/><g><path d="M142.204,682.458c-187.15,187.15 -187.15,490.542 0,677.671l542.109,542.129c187.149,187.13 490.541,187.13 677.67,0l542.13,-542.129c187.133,-187.146 187.133,-490.537 -0.001,-677.671l-542.129,-542.112c-187.146,-187.129 -490.537,-187.129 -677.67,-0l-542.109,542.112Zm1118.12,576.03c131.004,-131.005 131.004,-343.384 -0,-474.367c-130.988,-131.004 -343.363,-131.004 -474.35,-0c-131.004,131.004 -131.004,343.362 -0,474.367c131.004,130.987 343.362,130.987 474.367,-0l-0.017,-0Z"/><path d="M2852.09,1383.5c0.762,-150.937 93.012,-239.371 225.658,-239.371c131.883,0 209.637,84.621 208.879,228.709l0,687.629l324.754,-0l0,-745.575c0.763,-274.438 -160.858,-440.629 -404.804,-440.629c-177.612,-0 -296.542,83.866 -349.912,221.841l-13.717,0l-0,-596.896l-315.613,0l0,1561.26l324.755,-0l-0,-676.967Zm1262.9,699.071c173.041,0 285.1,-75.479 342.283,-184.483l9.146,-0l-0,162.379l307.983,-0l0,-789.784c0,-279.008 -236.317,-396.42 -497.038,-396.42c-280.545,-0 -465.024,134.183 -510.012,347.637l300.371,24.384c22.104,-77.755 91.475,-134.926 208.108,-134.926c110.538,0 173.817,55.65 173.817,151.696l-0,4.592c-0,75.458 -80.05,85.362 -283.584,105.192c-231.762,21.345 -439.866,99.1 -439.866,360.579c-0,231.746 165.412,349.154 388.791,349.154Zm92.992,-224.137c-99.862,-0 -171.525,-46.488 -171.525,-135.684c0,-91.487 75.479,-136.475 189.834,-152.471c70.883,-9.904 186.758,-26.679 225.637,-52.612l0,124.275c0,122.725 -101.379,216.492 -243.946,216.492Zm1706.75,-635.013c-28.954,-215.75 -202.775,-349.158 -498.558,-349.158c-299.596,-0 -497.033,138.754 -496.275,364.412c-0.758,175.317 109.779,288.913 338.471,334.659l202.775,40.395c102.154,20.588 148.658,57.946 150.179,116.634c-1.521,69.383 -76.996,118.925 -190.575,118.925c-115.875,-0 -192.867,-49.542 -212.696,-144.846l-319.404,16.775c30.492,224.133 221.063,362.112 531.342,362.112c303.408,0 520.658,-154.75 521.437,-385.737c-0.779,-169.246 -111.3,-270.642 -338.475,-317.129l-211.937,-42.688c-109.021,-23.642 -149.417,-61 -148.659,-117.408c-0.758,-70.129 78.534,-115.875 179.15,-115.875c112.821,-0 179.909,61.758 195.925,137.217l297.3,-18.288Zm470.075,160.079c0.759,-150.937 92.992,-239.371 225.638,-239.371c131.887,0 209.642,84.621 208.883,228.709l0,687.629l324.754,-0l0,-745.575c0.759,-274.438 -160.858,-440.629 -404.804,-440.629c-177.616,-0 -296.541,83.866 -349.896,221.841l-13.737,0l-0,-596.895l-315.592,-0l0,1561.26l324.754,-0l0,-676.967Zm1253.73,0c0.758,-150.937 90.716,-239.371 221.841,-239.371c130.35,0 208.884,85.38 208.104,228.709l0,687.629l324.759,-0l-0,-745.575c-0,-272.9 -160.083,-440.629 -404.029,-440.629c-173.821,-0 -299.596,85.383 -352.192,221.841l-13.737,0l-0,-206.587l-309.5,-0l-0,1170.95l324.754,-0l-0,-676.967Zm1453.84,699.829c355.263,0 576.33,-243.187 576.33,-603.762c-0,-362.875 -221.067,-605.304 -576.33,-605.304c-355.245,-0 -576.308,242.429 -576.308,605.304c0,360.575 221.063,603.762 576.308,603.762Zm1.538,-251.575c-163.896,0 -247.763,-150.175 -247.763,-354.483c0,-204.313 83.867,-355.229 247.763,-355.229c160.842,-0 244.704,150.937 244.704,355.229c0,204.308 -83.862,354.483 -244.704,354.483Zm1131.58,247.763c189.054,-0 287.396,-109.004 332.379,-206.588l13.721,0l-0,187.538l320.179,-0l0,-1561.28l-323.996,-0l0,587.008l-9.904,0c-43.467,-95.287 -137.233,-211.937 -333.142,-211.937c-256.904,-0 -474.17,199.737 -474.17,602.245c-0,391.846 208.12,603.009 474.933,603.009Zm102.912,-258.425c-159.325,-0 -246.241,-141.809 -246.241,-346.1c-0,-202.792 85.383,-342.288 246.241,-342.288c157.805,0 246.242,133.405 246.242,342.288c0,208.867 -89.975,346.1 -246.242,346.1Zm1278.13,262.237c289.691,0 484.837,-141.033 530.583,-358.3l-300.358,-19.808c-32.784,89.175 -116.629,135.679 -224.892,135.679c-162.379,0 -265.292,-107.483 -265.292,-282.062l0,-0.759l797.409,0l-0,-89.196c-0,-397.937 -240.909,-594.62 -550.409,-594.62c-344.583,-0 -567.941,244.708 -567.941,606.062c-0,371.258 220.321,603.004 580.9,603.004Zm-259.959,-726.504c6.867,-133.404 108.263,-240.133 252.33,-240.133c141.033,-0 238.616,100.637 239.375,240.133l-491.705,0Z" style="fill-rule:nonzero;"/></g></g></svg>