<?xml version="1.0" encoding="UTF-8" standalone="no"?><!DOCTYPE svg PUBLIC "-//W3C//DTD SVG 1.1//EN" "http://www.w3.org/Graphics/SVG/1.1/DTD/svg11.dtd"><svg width="100%" height="100%" viewBox="0 0 8217 2088" version="1.1" xmlns="http://www.w3.org/2000/svg" xmlns:xlink="http://www.w3.org/1999/xlink" xml:space="preserve" xmlns:serif="http://www.serif.com/" style="fill-rule:evenodd;clip-rule:evenodd;stroke-linejoin:round;stroke-miterlimit:2;"><rect id="Artboard2" x="0" y="0" width="8216.67" height="2087.5" style="fill:none;"/><clipPath id="_clip1"><rect x="0" y="0" width="8216.67" height="2087.5"/></clipPath><g clip-path="url(#_clip1)"><rect id="Artboard1" x="-3562.5" y="-904.167" width="13020.8" height="3125" style="fill:none;"/><g><g><path d="M-8.208,306.904l321.325,0l-0,1170.48l594.891,0l0,296.538l-916.216,-0l-0,-1467.01Zm1058.28,472.333l308.696,0l-0,994.13l-308.696,-0l-0,-994.13Zm154.341,-494.233c98.23,0.017 179.05,80.85 179.05,179.075c0,98.238 -80.837,179.075 -179.075,179.075c-98.237,0 -179.079,-80.837 -179.079,-179.075c0,-98.237 80.842,-179.075 179.079,-179.075l0.025,0m1445.66,21.675l308.7,0l-0,876.725l349.858,-404.617l378.475,0l-405.162,460.246l396.637,534.75l-387.991,0l-327.7,-491.408l-4.05,-0l-0,491.346l-308.7,-0l-0.067,-1467.04Zm-1120.14,472.658l296.442,0l-0,135.859l4.212,-0c60.246,-103.225 172.863,-165.092 292.296,-160.588c313.042,0 370.659,205.959 370.659,473.525l-0,545.167l-308.696,-0l-0,-483.329c-0,-115.375 -2.117,-263.679 -160.775,-263.679c-160.459,-0 -185.217,125.633 -185.217,255.283l0,491.604l-308.7,0l-0.221,-993.842Z" style="fill-rule:nonzero;"/><path d="M4337.21,1160.67c0.029,-1.454 0.046,-2.917 0.046,-4.371c0,-101.533 -83.55,-185.087 -185.087,-185.087c-1.5,-0 -2.992,0.02 -4.492,0.058c-111.496,-6.942 -209.358,78.025 -218.138,189.4l407.671,-0Zm261.488,440.529c-103.817,125.896 -258.971,198.588 -422.142,197.796c-308.696,-0 -555.846,-206.063 -555.846,-525.142c0,-319.079 247.121,-525.037 555.846,-525.037c288.533,-0 469.475,205.791 469.475,525.037l0,96.792l-716.492,-0c18.359,112.979 118.205,196.046 232.638,193.55c89.192,-0.558 172.246,-46.363 220.304,-121.488l216.217,158.492Zm690.771,-581.671c-154.342,0 -246.95,103.067 -246.95,253.234c-0,150.17 92.57,253.32 246.95,253.32c154.383,0 247.187,-102.895 247.187,-253.32c0,-150.43 -92.646,-253.234 -247.187,-253.234m531.379,753.646l-284.192,0l0,-131.842l-4.212,0c-72.217,97.13 -185.867,155.1 -306.9,156.534c-296.6,-0 -491.984,-214.067 -491.984,-516.779c0,-278.013 172.904,-533.305 457.125,-533.305c127.759,0 247.092,34.955 317.092,131.838l4.054,-0l0,-573.05l308.979,-0l0.038,1466.6Zm2083.99,0.579l-308.7,0l0,-483.433c0,-115.279 -2.058,-263.679 -160.55,-263.679c-160.783,-0 -185.383,125.596 -185.383,255.283l-0,491.792l-308.688,-0l0,-994.129l296.342,-0l0,135.854l4.154,-0c60.338,-103.167 172.946,-165.013 292.392,-160.579c312.871,-0 370.562,205.791 370.562,473.525l-0.129,545.366Zm-1311.63,-1130.06l-0.037,-0c-98.275,-0 -179.142,-80.859 -179.142,-179.129c-0,-98.275 80.866,-179.142 179.142,-179.142c98.262,-0 179.12,80.846 179.141,179.104l0,0.038c0,98.254 -80.85,179.12 -179.104,179.129m154.342,1130.06l-309.013,0l0,-994.166l309.013,-0l-0,994.166Zm1311.19,-1775l-1775.33,0c-83.333,-0.941 -152.712,66.825 -153.729,150.163l-0,1782.69c0.979,83.383 70.35,151.221 153.729,150.329l1775.33,0c83.55,1.05 153.188,-66.779 154.346,-150.329l0,-1782.81c-1.183,-83.517 -70.833,-151.271 -154.346,-150.171" style="fill-rule:nonzero;"/></g></g></g></svg>